# xmcd
#
# Track frame offsets:
# 150
# 1664
# 14267
# 14610
# 29012
# 42902
# 55968
# 66351
#
# Disc length: 1055 seconds
#
# Revision: 0
# Processed by: cddbd v1.5.1PL0 Copyright (c) Steve Scherf et al.
# Submitted via: Audion 2.5.0 (http://www.panic.com/audion/)
#
DISCID=62041d08
DTITLE=Tenore - Roberto Costi
DYEAR=1900
DGENRE=
TTITLE0=No puedeser la tabernera del puerto
TTITLE1=Ah la paterna mano ("Macbeth" Giuseppe Verdi9
TTITLE2=Agnus Dei (G. Bizet)
TTITLE3=Avete Torto! (Gianni Schicchi - Puccini)
TTITLE4=E lucean le stelle (Tosca - Puccini)
TTITLE5=Tu ca nun chiagne (De Curtis)
TTITLE6=Traccia Fantasma 01
TTITLE7=Traccia Fantasma 02
EXTD=
EXTT0=
EXTT1=
EXTT2=
EXTT3=
EXTT4=
EXTT5=
EXTT6=
EXTT7=
PLAYORDER=
